<svg width="670" height="669" viewBox="0 0 670 669" fill="none" xmlns="http://www.w3.org/2000/svg">
<path d="M668.498 334.499C668.498 518.407 519.188 667.497 335 667.497C150.811 667.497 1.50098 518.407 1.50098 334.499C1.50098 150.591 150.811 1.5 335 1.5C519.188 1.5 668.498 150.591 668.498 334.499Z" fill="#D789F2" stroke="#5B5B5B" stroke-width="3"/>
<path d="M227.845 651.517C261.489 662.852 297.525 668.999 335 668.999C520.014 668.999 669.999 519.237 669.999 334.5C669.999 320.388 669.112 306.483 667.413 292.829L660.65 292.349L567.165 199.003L191.375 209.11L2.58594 292.827L127.383 417.439L17.5078 441.494L227.845 651.517Z" fill="#B159D0"/>
<path d="M107.155 347.913C107.155 330.344 109.929 313.546 114.937 298.064H46.6276C43.4608 314.084 41.7322 330.757 41.7322 347.913C41.7322 365.069 43.4608 381.744 46.6276 397.762H114.939C109.931 382.28 107.155 365.482 107.155 347.913Z" fill="#FFECB3"/>
<path d="M623.37 397.762H555.059H445.08C405.927 397.762 367.942 410.21 335 433.731C334.147 434.341 333.28 434.925 332.435 435.551C304.214 456.361 277.779 471.451 255.765 479.64C243.403 484.237 232.418 486.683 223.334 486.683C207.435 486.683 192.275 482.841 178.46 475.904H76.8416C109.915 529.769 163.25 564.825 223.334 564.825C259.57 564.825 300.44 545.537 335 523.795C346.421 516.608 357.154 509.155 366.804 502.042C381.332 491.328 397.383 483.784 414.236 479.638C424.284 477.167 434.616 475.904 445.084 475.904H491.541H593.16H636.583C645 462 661.693 424.734 664.5 397.762H623.37Z" fill="#FFECB3"/>
<path d="M623.37 397.763H555.059H445.08C405.927 397.763 367.942 410.211 335 433.732C334.75 433.91 334.499 434.09 334.249 434.265V524.258C334.497 524.101 334.751 523.95 335 523.793C346.421 516.607 357.154 509.154 366.804 502.04C381.332 491.327 397.383 483.782 414.236 479.637C424.284 477.166 434.616 475.903 445.084 475.903H491.541H593.16H639C649.5 451.5 661.193 424.733 664 397.761H623.37V397.763Z" fill="#FFD863"/>
<path d="M114.939 397.762H46.6278L6 397.761C8.80692 424.733 22.5 459 31.5 475.904H76.8405H178.459H224.916C235.384 475.904 245.715 477.167 255.764 479.638C277.78 471.45 304.213 456.36 332.434 435.549C333.279 434.924 334.146 434.343 334.999 433.73C302.054 410.209 264.069 397.761 224.916 397.761H114.939V397.762Z" fill="#8BF1CC"/>
<path d="M255.764 216.19C245.716 218.661 235.384 219.924 224.916 219.924H178.459H76.8418H17.5091C10.4388 244.953 5.39286 271.094 2.58594 298.066H46.6278H114.939H224.918C264.071 298.066 302.055 285.618 334.998 262.097C334.144 261.487 333.281 260.903 332.435 260.28C304.214 239.468 277.78 224.375 255.764 216.19Z" fill="#8BF1CC"/>
<path d="M652.491 219.921H593.157H491.539H445.081C434.614 219.921 424.282 218.656 414.232 216.187C397.379 212.043 381.328 204.498 366.8 193.786C357.152 186.673 346.417 179.22 334.996 172.033C319.875 162.522 303.547 153.478 286.928 146.313C284.554 145.289 282.172 144.306 279.791 143.362C275.023 141.476 270.243 139.763 265.472 138.251C263.085 137.495 260.703 136.791 258.323 136.138C248.808 133.535 239.367 131.808 230.174 131.224C227.88 131.075 225.597 131 223.334 131C163.25 131 109.917 166.056 76.8416 219.921H178.46C192.272 212.986 207.435 209.142 223.334 209.142C224.469 209.142 225.635 209.179 226.828 209.255C235.186 209.786 244.947 212.162 255.765 216.185C277.781 224.374 304.214 239.464 332.435 260.276C333.28 260.898 334.145 261.483 334.997 262.092C367.942 285.616 405.924 298.061 445.08 298.061H555.059H623.37H667.415C664.607 271.094 659.56 244.952 652.491 219.921Z" fill="#FFECB3"/>
<path d="M652.491 219.921H593.157H491.539H445.081C434.614 219.921 424.282 218.656 414.232 216.187C397.379 212.043 381.328 204.498 366.8 193.786C357.152 186.673 346.417 179.22 334.996 172.033C334.747 171.877 334.495 171.724 334.245 171.569V261.565C334.495 261.74 334.746 261.919 334.996 262.097C367.944 285.618 405.925 298.064 445.081 298.064H555.06H623.371H667.417C664.607 271.094 659.56 244.952 652.491 219.921Z" fill="#FFD863"/>
<path d="M623.37 298.064C617.705 269.418 607.299 242.949 593.157 219.922C560.084 166.061 506.748 131.001 446.667 131.001C410.434 131.001 369.561 150.29 334.999 172.035C346.42 179.222 357.153 186.674 366.803 193.788C381.328 204.5 397.382 212.046 414.235 216.188C426.595 211.591 437.582 209.145 446.668 209.145C462.568 209.145 477.728 212.987 491.543 219.924C520.608 234.518 543.672 262.849 555.064 298.066C560.072 313.549 562.846 330.346 562.846 347.915C562.846 365.484 560.072 382.282 555.064 397.764C543.672 432.981 520.608 461.313 491.543 475.906C477.73 482.841 462.568 486.685 446.668 486.685C437.582 486.685 426.597 484.239 414.238 479.642C397.384 483.785 381.333 491.333 366.805 502.045C357.157 509.158 346.423 516.611 335.004 523.798C369.563 545.54 410.434 564.828 446.668 564.828C506.752 564.828 560.085 529.772 593.161 475.907C607.3 452.879 617.71 426.412 623.374 397.766C626.54 381.746 628.269 365.073 628.269 347.916C628.267 330.757 626.537 314.082 623.37 298.064Z" fill="#61DBAF"/>
<mask id="path-12-outside-1" maskUnits="userSpaceOnUse" x="55" y="219" width="558" height="231" fill="black">
<rect fill="white" x="55" y="219" width="558" height="231"/>
<path d="M92.5099 287.231L83.6343 296.954V320.585H62V230.985H83.6343V270.493L91.1539 259.108L110.508 230.985H137.258L106.933 270.616L137.258 320.585H111.617L92.5099 287.231Z"/>
<path d="M160.864 254L161.542 261.816C166.144 255.785 172.493 252.769 180.588 252.769C187.532 252.769 192.71 254.841 196.12 258.985C199.572 263.128 201.359 269.364 201.482 277.693V320.585H180.649V278.554C180.649 275.19 179.971 272.728 178.615 271.169C177.259 269.569 174.794 268.769 171.219 268.769C167.151 268.769 164.131 270.369 162.159 273.569V320.585H141.387V254H160.864Z"/>
<path d="M210.42 286.677C210.42 280.031 211.714 274.123 214.303 268.954C216.891 263.744 220.61 259.744 225.459 256.954C230.308 254.164 235.999 252.769 242.532 252.769C252.517 252.769 260.386 255.867 266.139 262.062C271.891 268.216 274.768 276.605 274.768 287.231V287.97C274.768 298.349 271.871 306.595 266.077 312.708C260.324 318.78 252.517 321.816 242.655 321.816C233.163 321.816 225.541 318.985 219.788 313.324C214.036 307.621 210.933 299.908 210.481 290.185L210.42 286.677ZM231.191 287.97C231.191 294.123 232.157 298.636 234.088 301.508C236.019 304.38 238.875 305.816 242.655 305.816C250.052 305.816 253.832 300.134 253.996 288.77V286.677C253.996 274.739 250.175 268.769 242.532 268.769C235.588 268.769 231.828 273.918 231.253 284.216L231.191 287.97Z"/>
<path d="M308.113 237.446V254H319.084V268.4H308.113V298.862C308.113 301.365 308.565 303.108 309.469 304.093C310.373 305.077 312.16 305.57 314.831 305.57C316.886 305.57 318.612 305.447 320.009 305.2V320.031C316.269 321.221 312.366 321.816 308.298 321.816C301.148 321.816 295.868 320.134 292.457 316.77C289.047 313.406 287.341 308.298 287.341 301.447V268.4H278.836V254H287.341V237.446H308.113Z"/>
<path d="M385.528 295.785L379.672 301.631V320.585H358.901V226H379.672V276.216L381.768 273.446L397.424 254H422.324L398.964 281.385L423.865 320.585H400.074L385.528 295.785Z"/>
<path d="M446.856 254L447.534 261.816C452.136 255.785 458.484 252.769 466.579 252.769C473.524 252.769 478.701 254.841 482.111 258.985C485.563 263.128 487.351 269.364 487.474 277.693V320.585H466.641V278.554C466.641 275.19 465.963 272.728 464.607 271.169C463.251 269.569 460.785 268.769 457.211 268.769C453.143 268.769 450.122 270.369 448.15 273.569V320.585H427.379V254H446.856Z"/>
<path d="M496.411 286.677C496.411 280.031 497.705 274.123 500.294 268.954C502.883 263.744 506.602 259.744 511.45 256.954C516.299 254.164 521.99 252.769 528.523 252.769C538.508 252.769 546.377 255.867 552.13 262.062C557.883 268.216 560.759 276.605 560.759 287.231V287.97C560.759 298.349 557.862 306.595 552.068 312.708C546.316 318.78 538.508 321.816 528.647 321.816C519.155 321.816 511.532 318.985 505.78 313.324C500.027 307.621 496.925 299.908 496.473 290.185L496.411 286.677ZM517.182 287.97C517.182 294.123 518.148 298.636 520.079 301.508C522.011 304.38 524.866 305.816 528.647 305.816C536.043 305.816 539.823 300.134 539.988 288.77V286.677C539.988 274.739 536.166 268.769 528.523 268.769C521.579 268.769 517.819 273.918 517.244 284.216L517.182 287.97Z"/>
<path d="M594.104 237.446V254H605.075V268.4H594.104V298.862C594.104 301.365 594.556 303.108 595.46 304.093C596.364 305.077 598.152 305.57 600.823 305.57C602.877 305.57 604.603 305.447 606 305.2V320.031C602.261 321.221 598.357 321.816 594.289 321.816C587.139 321.816 581.859 320.134 578.449 316.77C575.038 313.406 573.333 308.298 573.333 301.447V268.4H564.827V254H573.333V237.446H594.104Z"/>
<path d="M188.046 427C190.963 427 193.223 426.22 194.826 424.661C196.428 423.061 197.209 420.846 197.168 418.015H216.645C216.645 425.318 214.015 431.308 208.755 435.985C203.537 440.662 196.798 443 188.539 443C178.841 443 171.199 439.964 165.61 433.892C160.022 427.82 157.228 419.41 157.228 408.661V407.8C157.228 401.072 158.46 395.143 160.926 390.015C163.432 384.846 167.028 380.887 171.712 378.138C176.397 375.348 181.944 373.953 188.354 373.953C197.024 373.953 203.907 376.353 209.002 381.154C214.097 385.954 216.645 392.456 216.645 400.661H197.168C197.168 397.215 196.326 394.569 194.641 392.723C192.956 390.877 190.696 389.954 187.861 389.954C182.478 389.954 179.335 393.379 178.431 400.231C178.143 402.405 177.999 405.4 177.999 409.215C177.999 415.902 178.8 420.538 180.403 423.123C182.005 425.708 184.553 427 188.046 427Z"/>
<path d="M222.809 407.861C222.809 401.215 224.103 395.307 226.692 390.138C229.28 384.928 232.999 380.928 237.848 378.138C242.696 375.348 248.387 373.953 254.921 373.953C264.906 373.953 272.775 377.051 278.528 383.246C284.28 389.4 287.157 397.79 287.157 408.415V409.154C287.157 419.533 284.26 427.779 278.466 433.892C272.713 439.964 264.906 443 255.044 443C245.552 443 237.93 440.169 232.177 434.508C226.425 428.805 223.322 421.092 222.87 411.369L222.809 407.861ZM243.58 409.154C243.58 415.308 244.546 419.82 246.477 422.692C248.408 425.564 251.264 427 255.044 427C262.441 427 266.221 421.318 266.385 409.954V407.861C266.385 395.923 262.564 389.954 254.921 389.954C247.977 389.954 244.217 395.102 243.642 405.4L243.58 409.154Z"/>
<path d="M318.221 441.769H297.388V347.246H318.221V441.769Z"/>
<path d="M328.453 407.861C328.453 401.215 329.747 395.307 332.336 390.138C334.925 384.928 338.643 380.928 343.492 378.138C348.341 375.348 354.032 373.953 360.565 373.953C370.55 373.953 378.419 377.051 384.172 383.246C389.924 389.4 392.801 397.79 392.801 408.415V409.154C392.801 419.533 389.904 427.779 384.11 433.892C378.357 439.964 370.55 443 360.688 443C351.196 443 343.574 440.169 337.821 434.508C332.069 428.805 328.966 421.092 328.514 411.369L328.453 407.861ZM349.224 409.154C349.224 415.308 350.19 419.82 352.121 422.692C354.052 425.564 356.908 427 360.688 427C368.085 427 371.865 421.318 372.029 409.954V407.861C372.029 395.923 368.208 389.954 360.565 389.954C353.621 389.954 349.861 395.102 349.286 405.4L349.224 409.154Z"/>
<path d="M442.295 393.954L435.453 393.461C428.92 393.461 424.728 395.513 422.879 399.615V441.769H402.108V375.184H421.585L422.263 383.738C425.756 377.215 430.625 373.953 436.871 373.953C439.09 373.953 441.021 374.2 442.664 374.692L442.295 393.954Z"/>
<path d="M484.7 423.061C484.7 421.297 483.776 419.882 481.927 418.815C480.077 417.749 476.564 416.641 471.387 415.492C466.209 414.343 461.936 412.846 458.567 411C455.197 409.113 452.629 406.836 450.862 404.169C449.095 401.502 448.212 398.446 448.212 395C448.212 388.887 450.739 383.861 455.793 379.923C460.847 375.943 467.463 373.953 475.64 373.953C484.433 373.953 491.501 375.943 496.843 379.923C502.184 383.902 504.855 389.133 504.855 395.615H484.022C484.022 390.282 481.207 387.615 475.578 387.615C473.4 387.615 471.572 388.23 470.092 389.461C468.613 390.651 467.874 392.148 467.874 393.954C467.874 395.8 468.778 397.297 470.586 398.446C472.394 399.595 475.27 400.538 479.215 401.277C483.2 402.015 486.693 402.897 489.693 403.923C499.719 407.369 504.732 413.543 504.732 422.446C504.732 428.518 502.02 433.461 496.596 437.277C491.213 441.092 484.228 443 475.64 443C469.928 443 464.833 441.974 460.354 439.923C455.875 437.872 452.382 435.082 449.876 431.554C447.369 428.026 446.116 424.313 446.116 420.415H465.531C465.614 423.492 466.641 425.749 468.613 427.185C470.586 428.579 473.113 429.277 476.194 429.277C479.03 429.277 481.146 428.702 482.543 427.554C483.981 426.405 484.7 424.908 484.7 423.061Z"/>
</mask>
<path d="M92.5099 287.231L83.6343 296.954V320.585H62V230.985H83.6343V270.493L91.1539 259.108L110.508 230.985H137.258L106.933 270.616L137.258 320.585H111.617L92.5099 287.231Z" fill="#C4C4C4"/>
<path d="M160.864 254L161.542 261.816C166.144 255.785 172.493 252.769 180.588 252.769C187.532 252.769 192.71 254.841 196.12 258.985C199.572 263.128 201.359 269.364 201.482 277.693V320.585H180.649V278.554C180.649 275.19 179.971 272.728 178.615 271.169C177.259 269.569 174.794 268.769 171.219 268.769C167.151 268.769 164.131 270.369 162.159 273.569V320.585H141.387V254H160.864Z" fill="#C4C4C4"/>
<path d="M210.42 286.677C210.42 280.031 211.714 274.123 214.303 268.954C216.891 263.744 220.61 259.744 225.459 256.954C230.308 254.164 235.999 252.769 242.532 252.769C252.517 252.769 260.386 255.867 266.139 262.062C271.891 268.216 274.768 276.605 274.768 287.231V287.97C274.768 298.349 271.871 306.595 266.077 312.708C260.324 318.78 252.517 321.816 242.655 321.816C233.163 321.816 225.541 318.985 219.788 313.324C214.036 307.621 210.933 299.908 210.481 290.185L210.42 286.677ZM231.191 287.97C231.191 294.123 232.157 298.636 234.088 301.508C236.019 304.38 238.875 305.816 242.655 305.816C250.052 305.816 253.832 300.134 253.996 288.77V286.677C253.996 274.739 250.175 268.769 242.532 268.769C235.588 268.769 231.828 273.918 231.253 284.216L231.191 287.97Z" fill="#C4C4C4"/>
<path d="M308.113 237.446V254H319.084V268.4H308.113V298.862C308.113 301.365 308.565 303.108 309.469 304.093C310.373 305.077 312.16 305.57 314.831 305.57C316.886 305.57 318.612 305.447 320.009 305.2V320.031C316.269 321.221 312.366 321.816 308.298 321.816C301.148 321.816 295.868 320.134 292.457 316.77C289.047 313.406 287.341 308.298 287.341 301.447V268.4H278.836V254H287.341V237.446H308.113Z" fill="#C4C4C4"/>
<path d="M385.528 295.785L379.672 301.631V320.585H358.901V226H379.672V276.216L381.768 273.446L397.424 254H422.324L398.964 281.385L423.865 320.585H400.074L385.528 295.785Z" fill="#C4C4C4"/>
<path d="M446.856 254L447.534 261.816C452.136 255.785 458.484 252.769 466.579 252.769C473.524 252.769 478.701 254.841 482.111 258.985C485.563 263.128 487.351 269.364 487.474 277.693V320.585H466.641V278.554C466.641 275.19 465.963 272.728 464.607 271.169C463.251 269.569 460.785 268.769 457.211 268.769C453.143 268.769 450.122 270.369 448.15 273.569V320.585H427.379V254H446.856Z" fill="#C4C4C4"/>
<path d="M496.411 286.677C496.411 280.031 497.705 274.123 500.294 268.954C502.883 263.744 506.602 259.744 511.45 256.954C516.299 254.164 521.99 252.769 528.523 252.769C538.508 252.769 546.377 255.867 552.13 262.062C557.883 268.216 560.759 276.605 560.759 287.231V287.97C560.759 298.349 557.862 306.595 552.068 312.708C546.316 318.78 538.508 321.816 528.647 321.816C519.155 321.816 511.532 318.985 505.78 313.324C500.027 307.621 496.925 299.908 496.473 290.185L496.411 286.677ZM517.182 287.97C517.182 294.123 518.148 298.636 520.079 301.508C522.011 304.38 524.866 305.816 528.647 305.816C536.043 305.816 539.823 300.134 539.988 288.77V286.677C539.988 274.739 536.166 268.769 528.523 268.769C521.579 268.769 517.819 273.918 517.244 284.216L517.182 287.97Z" fill="#C4C4C4"/>
<path d="M594.104 237.446V254H605.075V268.4H594.104V298.862C594.104 301.365 594.556 303.108 595.46 304.093C596.364 305.077 598.152 305.57 600.823 305.57C602.877 305.57 604.603 305.447 606 305.2V320.031C602.261 321.221 598.357 321.816 594.289 321.816C587.139 321.816 581.859 320.134 578.449 316.77C575.038 313.406 573.333 308.298 573.333 301.447V268.4H564.827V254H573.333V237.446H594.104Z" fill="#C4C4C4"/>
<path d="M188.046 427C190.963 427 193.223 426.22 194.826 424.661C196.428 423.061 197.209 420.846 197.168 418.015H216.645C216.645 425.318 214.015 431.308 208.755 435.985C203.537 440.662 196.798 443 188.539 443C178.841 443 171.199 439.964 165.61 433.892C160.022 427.82 157.228 419.41 157.228 408.661V407.8C157.228 401.072 158.46 395.143 160.926 390.015C163.432 384.846 167.028 380.887 171.712 378.138C176.397 375.348 181.944 373.953 188.354 373.953C197.024 373.953 203.907 376.353 209.002 381.154C214.097 385.954 216.645 392.456 216.645 400.661H197.168C197.168 397.215 196.326 394.569 194.641 392.723C192.956 390.877 190.696 389.954 187.861 389.954C182.478 389.954 179.335 393.379 178.431 400.231C178.143 402.405 177.999 405.4 177.999 409.215C177.999 415.902 178.8 420.538 180.403 423.123C182.005 425.708 184.553 427 188.046 427Z" fill="#C4C4C4"/>
<path d="M222.809 407.861C222.809 401.215 224.103 395.307 226.692 390.138C229.28 384.928 232.999 380.928 237.848 378.138C242.696 375.348 248.387 373.953 254.921 373.953C264.906 373.953 272.775 377.051 278.528 383.246C284.28 389.4 287.157 397.79 287.157 408.415V409.154C287.157 419.533 284.26 427.779 278.466 433.892C272.713 439.964 264.906 443 255.044 443C245.552 443 237.93 440.169 232.177 434.508C226.425 428.805 223.322 421.092 222.87 411.369L222.809 407.861ZM243.58 409.154C243.58 415.308 244.546 419.82 246.477 422.692C248.408 425.564 251.264 427 255.044 427C262.441 427 266.221 421.318 266.385 409.954V407.861C266.385 395.923 262.564 389.954 254.921 389.954C247.977 389.954 244.217 395.102 243.642 405.4L243.58 409.154Z" fill="#C4C4C4"/>
<path d="M318.221 441.769H297.388V347.246H318.221V441.769Z" fill="#C4C4C4"/>
<path d="M328.453 407.861C328.453 401.215 329.747 395.307 332.336 390.138C334.925 384.928 338.643 380.928 343.492 378.138C348.341 375.348 354.032 373.953 360.565 373.953C370.55 373.953 378.419 377.051 384.172 383.246C389.924 389.4 392.801 397.79 392.801 408.415V409.154C392.801 419.533 389.904 427.779 384.11 433.892C378.357 439.964 370.55 443 360.688 443C351.196 443 343.574 440.169 337.821 434.508C332.069 428.805 328.966 421.092 328.514 411.369L328.453 407.861ZM349.224 409.154C349.224 415.308 350.19 419.82 352.121 422.692C354.052 425.564 356.908 427 360.688 427C368.085 427 371.865 421.318 372.029 409.954V407.861C372.029 395.923 368.208 389.954 360.565 389.954C353.621 389.954 349.861 395.102 349.286 405.4L349.224 409.154Z" fill="#C4C4C4"/>
<path d="M442.295 393.954L435.453 393.461C428.92 393.461 424.728 395.513 422.879 399.615V441.769H402.108V375.184H421.585L422.263 383.738C425.756 377.215 430.625 373.953 436.871 373.953C439.09 373.953 441.021 374.2 442.664 374.692L442.295 393.954Z" fill="#C4C4C4"/>
<path d="M484.7 423.061C484.7 421.297 483.776 419.882 481.927 418.815C480.077 417.749 476.564 416.641 471.387 415.492C466.209 414.343 461.936 412.846 458.567 411C455.197 409.113 452.629 406.836 450.862 404.169C449.095 401.502 448.212 398.446 448.212 395C448.212 388.887 450.739 383.861 455.793 379.923C460.847 375.943 467.463 373.953 475.64 373.953C484.433 373.953 491.501 375.943 496.843 379.923C502.184 383.902 504.855 389.133 504.855 395.615H484.022C484.022 390.282 481.207 387.615 475.578 387.615C473.4 387.615 471.572 388.23 470.092 389.461C468.613 390.651 467.874 392.148 467.874 393.954C467.874 395.8 468.778 397.297 470.586 398.446C472.394 399.595 475.27 400.538 479.215 401.277C483.2 402.015 486.693 402.897 489.693 403.923C499.719 407.369 504.732 413.543 504.732 422.446C504.732 428.518 502.02 433.461 496.596 437.277C491.213 441.092 484.228 443 475.64 443C469.928 443 464.833 441.974 460.354 439.923C455.875 437.872 452.382 435.082 449.876 431.554C447.369 428.026 446.116 424.313 446.116 420.415H465.531C465.614 423.492 466.641 425.749 468.613 427.185C470.586 428.579 473.113 429.277 476.194 429.277C479.03 429.277 481.146 428.702 482.543 427.554C483.981 426.405 484.7 424.908 484.7 423.061Z" fill="#C4C4C4"/>
<path d="M92.5099 287.231L83.6343 296.954V320.585H62V230.985H83.6343V270.493L91.1539 259.108L110.508 230.985H137.258L106.933 270.616L137.258 320.585H111.617L92.5099 287.231Z" stroke="#5B5B5B" stroke-width="14" mask="url(#path-12-outside-1)"/>
<path d="M160.864 254L161.542 261.816C166.144 255.785 172.493 252.769 180.588 252.769C187.532 252.769 192.71 254.841 196.12 258.985C199.572 263.128 201.359 269.364 201.482 277.693V320.585H180.649V278.554C180.649 275.19 179.971 272.728 178.615 271.169C177.259 269.569 174.794 268.769 171.219 268.769C167.151 268.769 164.131 270.369 162.159 273.569V320.585H141.387V254H160.864Z" stroke="#5B5B5B" stroke-width="14" mask="url(#path-12-outside-1)"/>
<path d="M210.42 286.677C210.42 280.031 211.714 274.123 214.303 268.954C216.891 263.744 220.61 259.744 225.459 256.954C230.308 254.164 235.999 252.769 242.532 252.769C252.517 252.769 260.386 255.867 266.139 262.062C271.891 268.216 274.768 276.605 274.768 287.231V287.97C274.768 298.349 271.871 306.595 266.077 312.708C260.324 318.78 252.517 321.816 242.655 321.816C233.163 321.816 225.541 318.985 219.788 313.324C214.036 307.621 210.933 299.908 210.481 290.185L210.42 286.677ZM231.191 287.97C231.191 294.123 232.157 298.636 234.088 301.508C236.019 304.38 238.875 305.816 242.655 305.816C250.052 305.816 253.832 300.134 253.996 288.77V286.677C253.996 274.739 250.175 268.769 242.532 268.769C235.588 268.769 231.828 273.918 231.253 284.216L231.191 287.97Z" stroke="#5B5B5B" stroke-width="14" mask="url(#path-12-outside-1)"/>
<path d="M308.113 237.446V254H319.084V268.4H308.113V298.862C308.113 301.365 308.565 303.108 309.469 304.093C310.373 305.077 312.16 305.57 314.831 305.57C316.886 305.57 318.612 305.447 320.009 305.2V320.031C316.269 321.221 312.366 321.816 308.298 321.816C301.148 321.816 295.868 320.134 292.457 316.77C289.047 313.406 287.341 308.298 287.341 301.447V268.4H278.836V254H287.341V237.446H308.113Z" stroke="#5B5B5B" stroke-width="14" mask="url(#path-12-outside-1)"/>
<path d="M385.528 295.785L379.672 301.631V320.585H358.901V226H379.672V276.216L381.768 273.446L397.424 254H422.324L398.964 281.385L423.865 320.585H400.074L385.528 295.785Z" stroke="#5B5B5B" stroke-width="14" mask="url(#path-12-outside-1)"/>
<path d="M446.856 254L447.534 261.816C452.136 255.785 458.484 252.769 466.579 252.769C473.524 252.769 478.701 254.841 482.111 258.985C485.563 263.128 487.351 269.364 487.474 277.693V320.585H466.641V278.554C466.641 275.19 465.963 272.728 464.607 271.169C463.251 269.569 460.785 268.769 457.211 268.769C453.143 268.769 450.122 270.369 448.15 273.569V320.585H427.379V254H446.856Z" stroke="#5B5B5B" stroke-width="14" mask="url(#path-12-outside-1)"/>
<path d="M496.411 286.677C496.411 280.031 497.705 274.123 500.294 268.954C502.883 263.744 506.602 259.744 511.45 256.954C516.299 254.164 521.99 252.769 528.523 252.769C538.508 252.769 546.377 255.867 552.13 262.062C557.883 268.216 560.759 276.605 560.759 287.231V287.97C560.759 298.349 557.862 306.595 552.068 312.708C546.316 318.78 538.508 321.816 528.647 321.816C519.155 321.816 511.532 318.985 505.78 313.324C500.027 307.621 496.925 299.908 496.473 290.185L496.411 286.677ZM517.182 287.97C517.182 294.123 518.148 298.636 520.079 301.508C522.011 304.38 524.866 305.816 528.647 305.816C536.043 305.816 539.823 300.134 539.988 288.77V286.677C539.988 274.739 536.166 268.769 528.523 268.769C521.579 268.769 517.819 273.918 517.244 284.216L517.182 287.97Z" stroke="#5B5B5B" stroke-width="14" mask="url(#path-12-outside-1)"/>
<path d="M594.104 237.446V254H605.075V268.4H594.104V298.862C594.104 301.365 594.556 303.108 595.46 304.093C596.364 305.077 598.152 305.57 600.823 305.57C602.877 305.57 604.603 305.447 606 305.2V320.031C602.261 321.221 598.357 321.816 594.289 321.816C587.139 321.816 581.859 320.134 578.449 316.77C575.038 313.406 573.333 308.298 573.333 301.447V268.4H564.827V254H573.333V237.446H594.104Z" stroke="#5B5B5B" stroke-width="14" mask="url(#path-12-outside-1)"/>
<path d="M188.046 427C190.963 427 193.223 426.22 194.826 424.661C196.428 423.061 197.209 420.846 197.168 418.015H216.645C216.645 425.318 214.015 431.308 208.755 435.985C203.537 440.662 196.798 443 188.539 443C178.841 443 171.199 439.964 165.61 433.892C160.022 427.82 157.228 419.41 157.228 408.661V407.8C157.228 401.072 158.46 395.143 160.926 390.015C163.432 384.846 167.028 380.887 171.712 378.138C176.397 375.348 181.944 373.953 188.354 373.953C197.024 373.953 203.907 376.353 209.002 381.154C214.097 385.954 216.645 392.456 216.645 400.661H197.168C197.168 397.215 196.326 394.569 194.641 392.723C192.956 390.877 190.696 389.954 187.861 389.954C182.478 389.954 179.335 393.379 178.431 400.231C178.143 402.405 177.999 405.4 177.999 409.215C177.999 415.902 178.8 420.538 180.403 423.123C182.005 425.708 184.553 427 188.046 427Z" stroke="#5B5B5B" stroke-width="14" mask="url(#path-12-outside-1)"/>
<path d="M222.809 407.861C222.809 401.215 224.103 395.307 226.692 390.138C229.28 384.928 232.999 380.928 237.848 378.138C242.696 375.348 248.387 373.953 254.921 373.953C264.906 373.953 272.775 377.051 278.528 383.246C284.28 389.4 287.157 397.79 287.157 408.415V409.154C287.157 419.533 284.26 427.779 278.466 433.892C272.713 439.964 264.906 443 255.044 443C245.552 443 237.93 440.169 232.177 434.508C226.425 428.805 223.322 421.092 222.87 411.369L222.809 407.861ZM243.58 409.154C243.58 415.308 244.546 419.82 246.477 422.692C248.408 425.564 251.264 427 255.044 427C262.441 427 266.221 421.318 266.385 409.954V407.861C266.385 395.923 262.564 389.954 254.921 389.954C247.977 389.954 244.217 395.102 243.642 405.4L243.58 409.154Z" stroke="#5B5B5B" stroke-width="14" mask="url(#path-12-outside-1)"/>
<path d="M318.221 441.769H297.388V347.246H318.221V441.769Z" stroke="#5B5B5B" stroke-width="14" mask="url(#path-12-outside-1)"/>
<path d="M328.453 407.861C328.453 401.215 329.747 395.307 332.336 390.138C334.925 384.928 338.643 380.928 343.492 378.138C348.341 375.348 354.032 373.953 360.565 373.953C370.55 373.953 378.419 377.051 384.172 383.246C389.924 389.4 392.801 397.79 392.801 408.415V409.154C392.801 419.533 389.904 427.779 384.11 433.892C378.357 439.964 370.55 443 360.688 443C351.196 443 343.574 440.169 337.821 434.508C332.069 428.805 328.966 421.092 328.514 411.369L328.453 407.861ZM349.224 409.154C349.224 415.308 350.19 419.82 352.121 422.692C354.052 425.564 356.908 427 360.688 427C368.085 427 371.865 421.318 372.029 409.954V407.861C372.029 395.923 368.208 389.954 360.565 389.954C353.621 389.954 349.861 395.102 349.286 405.4L349.224 409.154Z" stroke="#5B5B5B" stroke-width="14" mask="url(#path-12-outside-1)"/>
<path d="M442.295 393.954L435.453 393.461C428.92 393.461 424.728 395.513 422.879 399.615V441.769H402.108V375.184H421.585L422.263 383.738C425.756 377.215 430.625 373.953 436.871 373.953C439.09 373.953 441.021 374.2 442.664 374.692L442.295 393.954Z" stroke="#5B5B5B" stroke-width="14" mask="url(#path-12-outside-1)"/>
<path d="M484.7 423.061C484.7 421.297 483.776 419.882 481.927 418.815C480.077 417.749 476.564 416.641 471.387 415.492C466.209 414.343 461.936 412.846 458.567 411C455.197 409.113 452.629 406.836 450.862 404.169C449.095 401.502 448.212 398.446 448.212 395C448.212 388.887 450.739 383.861 455.793 379.923C460.847 375.943 467.463 373.953 475.64 373.953C484.433 373.953 491.501 375.943 496.843 379.923C502.184 383.902 504.855 389.133 504.855 395.615H484.022C484.022 390.282 481.207 387.615 475.578 387.615C473.4 387.615 471.572 388.23 470.092 389.461C468.613 390.651 467.874 392.148 467.874 393.954C467.874 395.8 468.778 397.297 470.586 398.446C472.394 399.595 475.27 400.538 479.215 401.277C483.2 402.015 486.693 402.897 489.693 403.923C499.719 407.369 504.732 413.543 504.732 422.446C504.732 428.518 502.02 433.461 496.596 437.277C491.213 441.092 484.228 443 475.64 443C469.928 443 464.833 441.974 460.354 439.923C455.875 437.872 452.382 435.082 449.876 431.554C447.369 428.026 446.116 424.313 446.116 420.415H465.531C465.614 423.492 466.641 425.749 468.613 427.185C470.586 428.579 473.113 429.277 476.194 429.277C479.03 429.277 481.146 428.702 482.543 427.554C483.981 426.405 484.7 424.908 484.7 423.061Z" stroke="#5B5B5B" stroke-width="14" mask="url(#path-12-outside-1)"/>
<path d="M90.4538 290.231L81.5945 299.954V323.585H60V233.985H81.5945V273.493L89.1003 262.108L108.418 233.985H135.119L104.85 273.616L135.119 323.585H109.526L90.4538 290.231Z" fill="white"/>
<path d="M158.683 257L159.359 264.816C163.953 258.785 170.29 255.769 178.37 255.769C185.301 255.769 190.469 257.841 193.874 261.985C197.319 266.128 199.103 272.364 199.226 280.693V323.585H178.431V281.554C178.431 278.19 177.755 275.728 176.401 274.169C175.048 272.569 172.587 271.769 169.018 271.769C164.958 271.769 161.943 273.369 159.975 276.569V323.585H139.241V257H158.683Z" fill="white"/>
<path d="M208.147 289.677C208.147 283.031 209.439 277.123 212.023 271.954C214.607 266.744 218.319 262.744 223.158 259.954C227.998 257.164 233.679 255.769 240.2 255.769C250.167 255.769 258.021 258.867 263.763 265.062C269.506 271.216 272.377 279.605 272.377 290.231V290.97C272.377 301.349 269.485 309.595 263.702 315.708C257.96 321.78 250.167 324.816 240.323 324.816C230.849 324.816 223.24 321.985 217.498 316.324C211.756 310.621 208.66 302.908 208.208 293.185L208.147 289.677ZM228.88 290.97C228.88 297.123 229.844 301.636 231.772 304.508C233.699 307.38 236.55 308.816 240.323 308.816C247.706 308.816 251.479 303.134 251.643 291.77V289.677C251.643 277.739 247.829 271.769 240.2 271.769C233.269 271.769 229.516 276.918 228.942 287.216L228.88 290.97Z" fill="white"/>
<path d="M305.66 240.446V257H316.611V271.4H305.66V301.862C305.66 304.365 306.112 306.108 307.014 307.093C307.916 308.077 309.7 308.57 312.366 308.57C314.417 308.57 316.14 308.447 317.534 308.2V323.031C313.802 324.221 309.906 324.816 305.845 324.816C298.708 324.816 293.438 323.134 290.034 319.77C286.629 316.406 284.927 311.298 284.927 304.447V271.4H276.437V257H284.927V240.446H305.66Z" fill="white"/>
<path d="M382.933 298.785L377.088 304.631V323.585H356.355V229H377.088V279.216L379.18 276.446L394.807 257H419.662L396.345 284.385L421.2 323.585H397.452L382.933 298.785Z" fill="white"/>
<path d="M444.148 257L444.825 264.816C449.419 258.785 455.756 255.769 463.836 255.769C470.767 255.769 475.935 257.841 479.339 261.985C482.785 266.128 484.569 272.364 484.692 280.693V323.585H463.897V281.554C463.897 278.19 463.22 275.728 461.867 274.169C460.513 272.569 458.052 271.769 454.484 271.769C450.424 271.769 447.409 273.369 445.44 276.569V323.585H424.707V257H444.148Z" fill="white"/>
<path d="M493.613 289.677C493.613 283.031 494.905 277.123 497.488 271.954C500.072 266.744 503.784 262.744 508.624 259.954C513.464 257.164 519.144 255.769 525.666 255.769C535.633 255.769 543.487 258.867 549.229 265.062C554.971 271.216 557.842 279.605 557.842 290.231V290.97C557.842 301.349 554.951 309.595 549.168 315.708C543.425 321.78 535.633 324.816 525.789 324.816C516.314 324.816 508.706 321.985 502.964 316.324C497.222 310.621 494.125 302.908 493.674 293.185L493.613 289.677ZM514.346 290.97C514.346 297.123 515.31 301.636 517.237 304.508C519.165 307.38 522.016 308.816 525.789 308.816C533.172 308.816 536.945 303.134 537.109 291.77V289.677C537.109 277.739 533.295 271.769 525.666 271.769C518.734 271.769 514.981 276.918 514.407 287.216L514.346 290.97Z" fill="white"/>
<path d="M591.126 240.446V257H602.077V271.4H591.126V301.862C591.126 304.365 591.577 306.108 592.48 307.093C593.382 308.077 595.166 308.57 597.832 308.57C599.883 308.57 601.606 308.447 603 308.2V323.031C599.268 324.221 595.371 324.816 591.311 324.816C584.174 324.816 578.904 323.134 575.499 319.77C572.095 316.406 570.393 311.298 570.393 304.447V271.4H561.903V257H570.393V240.446H591.126Z" fill="white"/>
<path d="M185.814 430C188.726 430 190.982 429.22 192.582 427.661C194.181 426.061 194.96 423.846 194.919 421.015H214.361C214.361 428.318 211.736 434.308 206.486 438.985C201.277 443.662 194.55 446 186.306 446C176.627 446 168.998 442.964 163.42 436.892C157.842 430.82 155.053 422.41 155.053 411.661V410.8C155.053 404.072 156.283 398.143 158.744 393.015C161.246 387.846 164.835 383.887 169.511 381.138C174.186 378.348 179.723 376.953 186.122 376.953C194.776 376.953 201.646 379.353 206.732 384.154C211.818 388.954 214.361 395.456 214.361 403.661H194.919C194.919 400.215 194.079 397.569 192.397 395.723C190.715 393.877 188.46 392.954 185.63 392.954C180.257 392.954 177.119 396.379 176.217 403.231C175.929 405.405 175.786 408.4 175.786 412.215C175.786 418.902 176.586 423.538 178.185 426.123C179.785 428.708 182.328 430 185.814 430Z" fill="white"/>
<path d="M220.513 410.861C220.513 404.215 221.805 398.307 224.389 393.138C226.973 387.928 230.685 383.928 235.524 381.138C240.364 378.348 246.045 376.953 252.566 376.953C262.533 376.953 270.387 380.051 276.13 386.246C281.872 392.4 284.743 400.79 284.743 411.415V412.154C284.743 422.533 281.851 430.779 276.068 436.892C270.326 442.964 262.533 446 252.689 446C243.215 446 235.607 443.169 229.864 437.508C224.122 431.805 221.026 424.092 220.574 414.369L220.513 410.861ZM241.246 412.154C241.246 418.308 242.21 422.82 244.138 425.692C246.065 428.564 248.916 430 252.689 430C260.072 430 263.845 424.318 264.01 412.954V410.861C264.01 398.923 260.195 392.954 252.566 392.954C245.635 392.954 241.882 398.102 241.308 408.4L241.246 412.154Z" fill="white"/>
<path d="M315.75 444.769H294.955V350.246H315.75V444.769Z" fill="white"/>
<path d="M325.963 410.861C325.963 404.215 327.255 398.307 329.839 393.138C332.423 387.928 336.135 383.928 340.975 381.138C345.814 378.348 351.495 376.953 358.016 376.953C367.983 376.953 375.837 380.051 381.58 386.246C387.322 392.4 390.193 400.79 390.193 411.415V412.154C390.193 422.533 387.301 430.779 381.518 436.892C375.776 442.964 367.983 446 358.139 446C348.665 446 341.057 443.169 335.314 437.508C329.572 431.805 326.476 424.092 326.024 414.369L325.963 410.861ZM346.696 412.154C346.696 418.308 347.66 422.82 349.588 425.692C351.515 428.564 354.366 430 358.139 430C365.522 430 369.296 424.318 369.46 412.954V410.861C369.46 398.923 365.645 392.954 358.016 392.954C351.085 392.954 347.332 398.102 346.758 408.4L346.696 412.154Z" fill="white"/>
<path d="M439.596 396.954L432.767 396.461C426.245 396.461 422.062 398.513 420.216 402.615V444.769H399.483V378.184H418.924L419.601 386.738C423.087 380.215 427.947 376.953 434.182 376.953C436.396 376.953 438.324 377.2 439.965 377.692L439.596 396.954Z" fill="white"/>
<path d="M481.923 426.061C481.923 424.297 481 422.882 479.155 421.815C477.309 420.749 473.802 419.641 468.634 418.492C463.466 417.343 459.201 415.846 455.838 414C452.474 412.113 449.911 409.836 448.147 407.169C446.384 404.502 445.502 401.446 445.502 398C445.502 391.887 448.024 386.861 453.069 382.923C458.114 378.943 464.717 376.953 472.879 376.953C481.657 376.953 488.711 378.943 494.043 382.923C499.375 386.902 502.041 392.133 502.041 398.615H481.246C481.246 393.282 478.437 390.615 472.818 390.615C470.644 390.615 468.819 391.23 467.342 392.461C465.866 393.651 465.127 395.148 465.127 396.954C465.127 398.8 466.03 400.297 467.834 401.446C469.639 402.595 472.51 403.538 476.448 404.277C480.426 405.015 483.912 405.897 486.907 406.923C496.914 410.369 501.918 416.543 501.918 425.446C501.918 431.518 499.211 436.461 493.797 440.277C488.424 444.092 481.452 446 472.879 446C467.178 446 462.092 444.974 457.622 442.923C453.151 440.872 449.665 438.082 447.163 434.554C444.661 431.026 443.41 427.313 443.41 423.415H462.79C462.872 426.492 463.897 428.749 465.866 430.185C467.834 431.579 470.357 432.277 473.433 432.277C476.263 432.277 478.375 431.702 479.77 430.554C481.205 429.405 481.923 427.908 481.923 426.061Z" fill="white"/>
</svg>
